<?xml version="1.0" encoding="utf-8"?>
<!-- Generator: Adobe Illustrator 20.1.0, SVG Export Plug-In . SVG Version: 6.00 Build 0)  -->
<svg version="1.1" id="Layer_1" xmlns="http://www.w3.org/2000/svg" xmlns:xlink="http://www.w3.org/1999/xlink" x="0px" y="0px"
	 viewBox="0 0 345.4 345.4" style="enable-background:new 0 0 345.4 345.4;" xml:space="preserve">
<path d="M239.2,345.3c0-44.8,0-88.7,0-133.2c14.8,0,29.4,0,44.7,0c2.3-17.6,4.5-34.8,6.8-52.7c-2.4-0.2-4.5-0.6-6.6-0.6
	c-13.3-0.1-26.7-0.2-40,0.1c-4.2,0.1-5.5-1.3-5.3-5.4c0.5-11.8-0.1-23.7,1-35.4c0.9-10.2,7.3-15.5,17.8-16.1
	c9.8-0.5,19.7-0.5,29.5-0.3c4.1,0.1,5.5-1.4,5.5-5.5c-0.2-12.7-0.1-25.3-0.1-38c0-2.3,0.3-4.7-3.3-5c-19.6-1.6-39.2-4.2-58.6,0.7
	c-25.7,6.6-41.2,23.7-45,49.7c-2.3,15.7-1.5,31.9-1.9,47.8c-0.2,7.3,0,7.3-7.4,7.4c-10.8,0-21.7,0.1-32.5-0.1
	c-4.1-0.1-5.5,1.3-5.4,5.5c0.2,14.3,0.2,28.7,0,43c0,3.7,1.1,4.9,4.8,4.9c11.8-0.2,23.7,0,35.5-0.1c3.5-0.1,5.1,0.7,5.1,4.6
	c-0.1,41.5-0.1,83,0,124.5c0,3.1-0.9,4.4-4.3,4.4c-53.7-0.1-107.3,0-161-0.1c-10.3,0-18.2-8.2-18.5-18.5c-0.2-5.5,0-11,0-16.5
	c0-96.2,0-192.3,0-288.5C0,7.4,7.4,0,21.9,0c100.7,0,201.3,0,302,0c14.1,0,21.5,7.4,21.5,21.6c0,100.8,0,201.7,0,302.5
	c0,13.7-7.6,21.3-21.3,21.3c-26.3,0-52.7,0-79,0C243.3,345.3,241.5,345.3,239.2,345.3z"/>
</svg>
